<svg xmlns="http://www.w3.org/2000/svg" xmlns:xlink="http://www.w3.org/1999/xlink" id="body_1" preserveAspectRatio="xMinYMin meet" viewBox="0 0 789 1119"><defs><clipPath id="1"><path id="" clip-rule="evenodd" transform="matrix(1 0 0 1 0 0)" d="M0 839L0 -0.1599731L0 -0.1599731L592.56 -0.1599731L592.56 -0.1599731L592.56 839L592.56 839L0 839z" /></clipPath><clipPath id="2"><path id="" clip-rule="evenodd" transform="matrix(1 0 0 1 0 0)" d="M0 839L592.56 839L592.56 839L592.56 -0.1599731L592.56 -0.1599731L0 -0.1599731z" /></clipPath><clipPath id="3"><path id="" clip-rule="evenodd" transform="matrix(1 0 0 1 0 0)" d="M0 839L592.56 839L592.56 839L592.56 -0.1599731L592.56 -0.1599731L0 -0.1599731z" /></clipPath><clipPath id="4"><path id="" clip-rule="evenodd" transform="matrix(1 0 0 1 0 0)" d="M8.83E-06 839.0001L592.56 839.0001L592.56 839.0001L592.56 -0.1599121L592.56 -0.1599121L8.83E-06 -0.1599121z" /></clipPath><clipPath id="5"><path id="" clip-rule="evenodd" transform="matrix(1 0 0 1 0 0)" d="M8.83E-06 839.0001L592.56 839.0001L592.56 839.0001L592.56 -0.1599121L592.56 -0.1599121L8.83E-06 -0.1599121z" /></clipPath><clipPath id="6"><path id="" clip-rule="evenodd" transform="matrix(1 0 0 1 0 0)" d="M8.83E-06 839.0001L592.56 839.0001L592.56 839.0001L592.56 -0.1599121L592.56 -0.1599121L8.83E-06 -0.1599121z" /></clipPath><clipPath id="7"><path id="" clip-rule="evenodd" transform="matrix(1 0 0 1 0 0)" d="M8.83E-06 839.0001L592.56 839.0001L592.56 839.0001L592.56 -0.1599121L592.56 -0.1599121L8.83E-06 -0.1599121z" /></clipPath><clipPath id="8"><path id="" clip-rule="evenodd" transform="matrix(1 0 0 1 0 0)" d="M8.83E-06 839.0001L592.56 839.0001L592.56 839.0001L592.56 -0.1599121L592.56 -0.1599121L8.83E-06 -0.1599121z" /></clipPath><clipPath id="9"><path id="" clip-rule="evenodd" transform="matrix(1 0 0 1 0 0)" d="M8.83E-06 839.0001L592.56 839.0001L592.56 839.0001L592.56 -0.1599121L592.56 -0.1599121L8.83E-06 -0.1599121z" /></clipPath><clipPath id="10"><path id="" clip-rule="evenodd" transform="matrix(1 0 0 1 0 0)" d="M8.83E-06 839.0001L592.56 839.0001L592.56 839.0001L592.56 -0.1599121L592.56 -0.1599121L8.83E-06 -0.1599121z" /></clipPath><clipPath id="11"><path id="" clip-rule="evenodd" transform="matrix(1 0 0 1 0 0)" d="M8.83E-06 839.0001L592.56 839.0001L592.56 839.0001L592.56 -0.1599121L592.56 -0.1599121L8.83E-06 -0.1599121z" /></clipPath><clipPath id="12"><path id="" clip-rule="evenodd" transform="matrix(1 0 0 1 0 0)" d="M8.83E-06 839.0001L592.56 839.0001L592.56 839.0001L592.56 -0.1599121L592.56 -0.1599121L8.83E-06 -0.1599121z" /></clipPath><clipPath id="13"><path id="" clip-rule="evenodd" transform="matrix(1 0 0 1 0 0)" d="M8.83E-06 839.0001L592.56 839.0001L592.56 839.0001L592.56 -0.1599121L592.56 -0.1599121L8.83E-06 -0.1599121z" /></clipPath><clipPath id="14"><path id="" clip-rule="evenodd" transform="matrix(1 0 0 1 0 0)" d="M8.83E-06 839.0001L592.56 839.0001L592.56 839.0001L592.56 -0.1599121L592.56 -0.1599121L8.83E-06 -0.1599121z" /></clipPath><clipPath id="15"><path id="" clip-rule="evenodd" transform="matrix(1 0 0 1 0 0)" d="M8.83E-06 839.0001L592.56 839.0001L592.56 839.0001L592.56 -0.1599121L592.56 -0.1599121L8.83E-06 -0.1599121z" /></clipPath><clipPath id="16"><path id="" clip-rule="evenodd" transform="matrix(1 0 0 1 0 0)" d="M8.83E-06 839.0001L592.56 839.0001L592.56 839.0001L592.56 -0.1599121L592.56 -0.1599121L8.83E-06 -0.1599121z" /></clipPath><clipPath id="17"><path id="" clip-rule="evenodd" transform="matrix(1 0 0 1 0 0)" d="M8.83E-06 839.0001L592.56 839.0001L592.56 839.0001L592.56 -0.1599121L592.56 -0.1599121L8.83E-06 -0.1599121z" /></clipPath><clipPath id="18"><path id="" clip-rule="evenodd" transform="matrix(1 0 0 1 0 0)" d="M8.83E-06 839.0001L592.56 839.0001L592.56 839.0001L592.56 -0.1599121L592.56 -0.1599121L8.83E-06 -0.1599121z" /></clipPath><clipPath id="19"><path id="" clip-rule="evenodd" transform="matrix(1 0 0 1 0 0)" d="M8.83E-06 839.0001L592.56 839.0001L592.56 839.0001L592.56 -0.1599121L592.56 -0.1599121L8.83E-06 -0.1599121z" /></clipPath><clipPath id="20"><path id="" clip-rule="evenodd" transform="matrix(1 0 0 1 0 0)" d="M8.83E-06 839.0001L592.56 839.0001L592.56 839.0001L592.56 -0.1599121L592.56 -0.1599121L8.83E-06 -0.1599121z" /></clipPath><clipPath id="21"><path id="" clip-rule="evenodd" transform="matrix(1 0 0 1 0 0)" d="M8.83E-06 839.0001L592.56 839.0001L592.56 839.0001L592.56 -0.1599121L592.56 -0.1599121L8.83E-06 -0.1599121z" /></clipPath><clipPath id="22"><path id="" clip-rule="evenodd" transform="matrix(1 0 0 1 0 0)" d="M8.83E-06 839.0001L592.56 839.0001L592.56 839.0001L592.56 -0.1599121L592.56 -0.1599121L8.83E-06 -0.1599121z" /></clipPath><clipPath id="23"><path id="" clip-rule="evenodd" transform="matrix(1 0 0 1 0 0)" d="M8.83E-06 839.0001L592.56 839.0001L592.56 839.0001L592.56 -0.1599121L592.56 -0.1599121L8.83E-06 -0.1599121z" /></clipPath><clipPath id="24"><path id="" clip-rule="evenodd" transform="matrix(1 0 0 1 0 0)" d="M8.83E-06 839.0001L592.56 839.0001L592.56 839.0001L592.56 -0.1599121L592.56 -0.1599121L8.83E-06 -0.1599121z" /></clipPath><clipPath id="25"><path id="" clip-rule="evenodd" transform="matrix(1 0 0 1 0 0)" d="M8.83E-06 839.0001L592.56 839.0001L592.56 839.0001L592.56 -0.1599121L592.56 -0.1599121L8.83E-06 -0.1599121z" /></clipPath><clipPath id="26"><path id="" clip-rule="evenodd" transform="matrix(1 0 0 1 0 0)" d="M8.83E-06 839.0001L592.56 839.0001L592.56 839.0001L592.56 -0.1599121L592.56 -0.1599121L8.83E-06 -0.1599121z" /></clipPath><clipPath id="27"><path id="" clip-rule="evenodd" transform="matrix(1 0 0 1 0 0)" d="M8.83E-06 839.0001L592.56 839.0001L592.56 839.0001L592.56 -0.1599121L592.56 -0.1599121L8.83E-06 -0.1599121z" /></clipPath><clipPath id="28"><path id="" clip-rule="evenodd" transform="matrix(1 0 0 1 0 0)" d="M8.83E-06 839.0001L592.56 839.0001L592.56 839.0001L592.56 -0.1599121L592.56 -0.1599121L8.83E-06 -0.1599121z" /></clipPath><clipPath id="29"><path id="" clip-rule="evenodd" transform="matrix(1 0 0 1 0 0)" d="M8.83E-06 839.0001L592.56 839.0001L592.56 839.0001L592.56 -0.1599121L592.56 -0.1599121L8.83E-06 -0.1599121z" /></clipPath><clipPath id="30"><path id="" clip-rule="evenodd" transform="matrix(1 0 0 1 0 0)" d="M8.83E-06 839.0001L592.56 839.0001L592.56 839.0001L592.56 -0.1599121L592.56 -0.1599121L8.83E-06 -0.1599121z" /></clipPath><clipPath id="31"><path id="" clip-rule="evenodd" transform="matrix(1 0 0 1 0 0)" d="M8.83E-06 839.0001L592.56 839.0001L592.56 839.0001L592.56 -0.1599121L592.56 -0.1599121L8.83E-06 -0.1599121z" /></clipPath><clipPath id="32"><path id="" clip-rule="evenodd" transform="matrix(1 0 0 1 0 0)" d="M8.83E-06 839.0001L592.56 839.0001L592.56 839.0001L592.56 -0.1599121L592.56 -0.1599121L8.83E-06 -0.1599121z" /></clipPath><clipPath id="33"><path id="" clip-rule="evenodd" transform="matrix(1 0 0 1 0 0)" d="M8.83E-06 839.0001L592.56 839.0001L592.56 839.0001L592.56 -0.1599121L592.56 -0.1599121L8.83E-06 -0.1599121z" /></clipPath><clipPath id="34"><path id="" clip-rule="evenodd" transform="matrix(1 0 0 1 0 0)" d="M8.83E-06 839.0001L592.56 839.0001L592.56 839.0001L592.56 -0.1599121L592.56 -0.1599121L8.83E-06 -0.1599121z" /></clipPath><clipPath id="35"><path id="" clip-rule="evenodd" transform="matrix(1 0 0 1 0 0)" d="M8.83E-06 839.0001L592.56 839.0001L592.56 839.0001L592.56 -0.1599121L592.56 -0.1599121L8.83E-06 -0.1599121z" /></clipPath><clipPath id="36"><path id="" clip-rule="evenodd" transform="matrix(1 0 0 1 0 0)" d="M8.83E-06 839.0001L592.56 839.0001L592.56 839.0001L592.56 -0.1599121L592.56 -0.1599121L8.83E-06 -0.1599121z" /></clipPath><clipPath id="37"><path id="" clip-rule="evenodd" transform="matrix(1 0 0 1 0 0)" d="M8.83E-06 839.0001L592.56 839.0001L592.56 839.0001L592.56 -0.1599121L592.56 -0.1599121L8.83E-06 -0.1599121z" /></clipPath><clipPath id="38"><path id="" clip-rule="evenodd" transform="matrix(1 0 0 1 0 0)" d="M8.83E-06 839.0001L592.56 839.0001L592.56 839.0001L592.56 -0.1599121L592.56 -0.1599121L8.83E-06 -0.1599121z" /></clipPath><clipPath id="39"><path id="" clip-rule="evenodd" transform="matrix(1 0 0 1 0 0)" d="M8.83E-06 839.0001L592.56 839.0001L592.56 839.0001L592.56 -0.1599121L592.56 -0.1599121L8.83E-06 -0.1599121z" /></clipPath><clipPath id="40"><path id="" clip-rule="evenodd" transform="matrix(1 0 0 1 0 0)" d="M8.83E-06 839.0001L592.56 839.0001L592.56 839.0001L592.56 -0.1599121L592.56 -0.1599121L8.83E-06 -0.1599121z" /></clipPath><clipPath id="41"><path id="" clip-rule="evenodd" transform="matrix(1 0 0 1 0 0)" d="M8.83E-06 839.0001L592.56 839.0001L592.56 839.0001L592.56 -0.1599121L592.56 -0.1599121L8.83E-06 -0.1599121z" /></clipPath><clipPath id="42"><path id="" clip-rule="evenodd" transform="matrix(1 0 0 1 0 0)" d="M8.83E-06 839.0001L592.56 839.0001L592.56 839.0001L592.56 -0.1599121L592.56 -0.1599121L8.83E-06 -0.1599121z" /></clipPath><clipPath id="43"><path id="" clip-rule="evenodd" transform="matrix(1 0 0 1 0 0)" d="M8.83E-06 839.0001L592.56 839.0001L592.56 839.0001L592.56 -0.1599121L592.56 -0.1599121L8.83E-06 -0.1599121z" /></clipPath><clipPath id="44"><path id="" clip-rule="evenodd" transform="matrix(1 0 0 1 0 0)" d="M8.83E-06 839.0001L592.56 839.0001L592.56 839.0001L592.56 -0.1599121L592.56 -0.1599121L8.83E-06 -0.1599121z" /></clipPath><clipPath id="45"><path id="" clip-rule="evenodd" transform="matrix(1 0 0 1 0 0)" d="M8.83E-06 839.0001L592.56 839.0001L592.56 839.0001L592.56 -0.1599121L592.56 -0.1599121L8.83E-06 -0.1599121z" /></clipPath><clipPath id="46"><path id="" clip-rule="evenodd" transform="matrix(1 0 0 1 0 0)" d="M8.83E-06 839.0001L592.56 839.0001L592.56 839.0001L592.56 -0.1599121L592.56 -0.1599121L8.83E-06 -0.1599121z" /></clipPath><clipPath id="47"><path id="" clip-rule="evenodd" transform="matrix(1 0 0 1 0 0)" d="M8.83E-06 839.0001L592.56 839.0001L592.56 839.0001L592.56 -0.1599121L592.56 -0.1599121L8.83E-06 -0.1599121z" /></clipPath><clipPath id="48"><path id="" clip-rule="evenodd" transform="matrix(1 0 0 1 0 0)" d="M8.83E-06 839.0001L592.56 839.0001L592.56 839.0001L592.56 -0.1599121L592.56 -0.1599121L8.83E-06 -0.1599121z" /></clipPath><clipPath id="49"><path id="" clip-rule="evenodd" transform="matrix(1 0 0 1 0 0)" d="M8.83E-06 839.0001L592.56 839.0001L592.56 839.0001L592.56 -0.1599121L592.56 -0.1599121L8.83E-06 -0.1599121z" /></clipPath><clipPath id="50"><path id="" clip-rule="evenodd" transform="matrix(1 0 0 1 0 0)" d="M8.83E-06 839.0001L592.56 839.0001L592.56 839.0001L592.56 -0.1599121L592.56 -0.1599121L8.83E-06 -0.1599121z" /></clipPath><clipPath id="51"><path id="" clip-rule="evenodd" transform="matrix(1 0 0 1 0 0)" d="M8.83E-06 839.0001L592.56 839.0001L592.56 839.0001L592.56 -0.1599121L592.56 -0.1599121L8.83E-06 -0.1599121z" /></clipPath><clipPath id="52"><path id="" clip-rule="evenodd" transform="matrix(1 0 0 1 0 0)" d="M8.83E-06 839.0001L592.56 839.0001L592.56 839.0001L592.56 -0.1599121L592.56 -0.1599121L8.83E-06 -0.1599121z" /></clipPath><clipPath id="53"><path id="" clip-rule="evenodd" transform="matrix(1 0 0 1 0 0)" d="M8.83E-06 839.0001L592.56 839.0001L592.56 839.0001L592.56 -0.1599121L592.56 -0.1599121L8.83E-06 -0.1599121z" /></clipPath><clipPath id="54"><path id="" clip-rule="evenodd" transform="matrix(1 0 0 1 0 0)" d="M8.83E-06 839.0001L592.56 839.0001L592.56 839.0001L592.56 -0.1599121L592.56 -0.1599121L8.83E-06 -0.1599121z" /></clipPath><clipPath id="55"><path id="" clip-rule="evenodd" transform="matrix(1 0 0 1 0 0)" d="M8.83E-06 839.0001L592.56 839.0001L592.56 839.0001L592.56 -0.1599121L592.56 -0.1599121L8.83E-06 -0.1599121z" /></clipPath><clipPath id="56"><path id="" clip-rule="evenodd" transform="matrix(1 0 0 1 0 0)" d="M8.83E-06 839.0001L592.56 839.0001L592.56 839.0001L592.56 -0.1599121L592.56 -0.1599121L8.83E-06 -0.1599121z" /></clipPath><clipPath id="57"><path id="" clip-rule="evenodd" transform="matrix(1 0 0 1 0 0)" d="M8.83E-06 839.0001L592.56 839.0001L592.56 839.0001L592.56 -0.1599121L592.56 -0.1599121L8.83E-06 -0.1599121z" /></clipPath><clipPath id="58"><path id="" clip-rule="evenodd" transform="matrix(1 0 0 1 0 0)" d="M8.83E-06 839.0001L592.56 839.0001L592.56 839.0001L592.56 -0.1599121L592.56 -0.1599121L8.83E-06 -0.1599121z" /></clipPath><clipPath id="59"><path id="" clip-rule="evenodd" transform="matrix(1 0 0 1 0 0)" d="M8.83E-06 839.0001L592.56 839.0001L592.56 839.0001L592.56 -0.1599121L592.56 -0.1599121L8.83E-06 -0.1599121z" /></clipPath><clipPath id="60"><path id="" clip-rule="evenodd" transform="matrix(1 0 0 1 0 0)" d="M8.83E-06 839.0001L592.56 839.0001L592.56 839.0001L592.56 -0.1599121L592.56 -0.1599121L8.83E-06 -0.1599121z" /></clipPath><clipPath id="61"><path id="" clip-rule="evenodd" transform="matrix(1 0 0 1 0 0)" d="M8.83E-06 839.0001L592.56 839.0001L592.56 839.0001L592.56 -0.1599121L592.56 -0.1599121L8.83E-06 -0.1599121z" /></clipPath><clipPath id="62"><path id="" clip-rule="evenodd" transform="matrix(1 0 0 1 0 0)" d="M8.83E-06 839.0001L592.56 839.0001L592.56 839.0001L592.56 -0.1599121L592.56 -0.1599121L8.83E-06 -0.1599121z" /></clipPath><clipPath id="63"><path id="" clip-rule="evenodd" transform="matrix(1 0 0 1 0 0)" d="M8.83E-06 839.0001L592.56 839.0001L592.56 839.0001L592.56 -0.1599121L592.56 -0.1599121L8.83E-06 -0.1599121z" /></clipPath><clipPath id="64"><path id="" clip-rule="evenodd" transform="matrix(1 0 0 1 0 0)" d="M8.83E-06 839.0001L592.56 839.0001L592.56 839.0001L592.56 -0.1599121L592.56 -0.1599121L8.83E-06 -0.1599121z" /></clipPath><clipPath id="65"><path id="" clip-rule="evenodd" transform="matrix(1 0 0 1 0 0)" d="M8.83E-06 839.0001L592.56 839.0001L592.56 839.0001L592.56 -0.1599121L592.56 -0.1599121L8.83E-06 -0.1599121z" /></clipPath><clipPath id="66"><path id="" clip-rule="evenodd" transform="matrix(1 0 0 1 0 0)" d="M156.02 71.59998L469.41 71.59998L469.41 71.59998L469.41 20L469.41 20L156.02 20z" /></clipPath><clipPath id="67"><path id="" clip-rule="evenodd" transform="matrix(1 0 0 1 0 0)" d="M156.02 71.59998L469.41 71.59998L469.41 71.59998L469.41 20L469.41 20L156.02 20z" /></clipPath><clipPath id="68"><path id="" clip-rule="evenodd" transform="matrix(1 0 0 1 0 0)" d="M156.02 71.59998L469.41 71.59998L469.41 71.59998L469.41 20L469.41 20L156.02 20z" /></clipPath><clipPath id="69"><path id="" clip-rule="evenodd" transform="matrix(1 0 0 1 0 0)" d="M156.02 71.59998L469.41 71.59998L469.41 71.59998L469.41 20L469.41 20L156.02 20z" /></clipPath><clipPath id="70"><path id="" clip-rule="evenodd" transform="matrix(1 0 0 1 0 0)" d="M156.02 71.59998L469.41 71.59998L469.41 71.59998L469.41 20L469.41 20L156.02 20z" /></clipPath><clipPath id="71"><path id="" clip-rule="evenodd" transform="matrix(1 0 0 1 0 0)" d="M156.02 71.59998L469.41 71.59998L469.41 71.59998L469.41 20L469.41 20L156.02 20z" /></clipPath><clipPath id="72"><path id="" clip-rule="evenodd" transform="matrix(1 0 0 1 0 0)" d="M156.02 71.59998L469.41 71.59998L469.41 71.59998L469.41 20L469.41 20L156.02 20z" /></clipPath><clipPath id="73"><path id="" clip-rule="evenodd" transform="matrix(1 0 0 1 0 0)" d="M156.02 71.59998L469.41 71.59998L469.41 71.59998L469.41 20L469.41 20L156.02 20z" /></clipPath><clipPath id="74"><path id="" clip-rule="evenodd" transform="matrix(1 0 0 1 0 0)" d="M18.96 273.85L561.2401 273.85L561.2401 273.85L561.2401 206.746L561.2401 206.746L18.96 206.746z" /></clipPath><clipPath id="75"><path id="" clip-rule="evenodd" transform="matrix(1 0 0 1 0 0)" d="M18.96 273.85L561.2401 273.85L561.2401 273.85L561.2401 206.746L561.2401 206.746L18.96 206.746z" /></clipPath><clipPath id="76"><path id="" clip-rule="evenodd" transform="matrix(1 0 0 1 0 0)" d="M18.96 273.85L561.2401 273.85L561.2401 273.85L561.2401 206.746L561.2401 206.746L18.96 206.746z" /></clipPath><clipPath id="77"><path id="" clip-rule="evenodd" transform="matrix(1 0 0 1 0 0)" d="M18.96 273.85L561.2401 273.85L561.2401 273.85L561.2401 206.746L561.2401 206.746L18.96 206.746z" /></clipPath><clipPath id="78"><path id="" clip-rule="evenodd" transform="matrix(1 0 0 1 0 0)" d="M18.96 273.85L561.2401 273.85L561.2401 273.85L561.2401 206.746L561.2401 206.746L18.96 206.746z" /></clipPath><clipPath id="79"><path id="" clip-rule="evenodd" transform="matrix(1 0 0 1 0 0)" d="M18.96 273.85L561.2401 273.85L561.2401 273.85L561.2401 206.746L561.2401 206.746L18.96 206.746z" /></clipPath><clipPath id="80"><path id="" clip-rule="evenodd" transform="matrix(1 0 0 1 0 0)" d="M18.96 273.85L561.2401 273.85L561.2401 273.85L561.2401 206.746L561.2401 206.746L18.96 206.746z" /></clipPath><clipPath id="81"><path id="" clip-rule="evenodd" transform="matrix(1 0 0 1 0 0)" d="M18.96 273.85L561.2401 273.85L561.2401 273.85L561.2401 206.746L561.2401 206.746L18.96 206.746z" /></clipPath><clipPath id="82"><path id="" clip-rule="evenodd" transform="matrix(1 0 0 1 0 0)" d="M18.96 273.85L561.2401 273.85L561.2401 273.85L561.2401 206.746L561.2401 206.746L18.96 206.746z" /></clipPath><clipPath id="83"><path id="" clip-rule="evenodd" transform="matrix(1 0 0 1 0 0)" d="M18.96 273.85L561.2401 273.85L561.2401 273.85L561.2401 206.746L561.2401 206.746L18.96 206.746z" /></clipPath><clipPath id="84"><path id="" clip-rule="evenodd" transform="matrix(1 0 0 1 0 0)" d="M18.96 273.85L561.2401 273.85L561.2401 273.85L561.2401 206.746L561.2401 206.746L18.96 206.746z" /></clipPath><clipPath id="85"><path id="" clip-rule="evenodd" transform="matrix(1 0 0 1 0 0)" d="M18.96 273.85L561.2401 273.85L561.2401 273.85L561.2401 206.746L561.2401 206.746L18.96 206.746z" /></clipPath><clipPath id="86"><path id="" clip-rule="evenodd" transform="matrix(1 0 0 1 0 0)" d="M18.96 273.85L561.2401 273.85L561.2401 273.85L561.2401 206.746L561.2401 206.746L18.96 206.746z" /></clipPath><clipPath id="87"><path id="" clip-rule="evenodd" transform="matrix(1 0 0 1 0 0)" d="M18.96 273.85L561.2401 273.85L561.2401 273.85L561.2401 206.746L561.2401 206.746L18.96 206.746z" /></clipPath><clipPath id="88"><path id="" clip-rule="evenodd" transform="matrix(1 0 0 1 0 0)" d="M18.96 273.85L561.2401 273.85L561.2401 273.85L561.2401 206.746L561.2401 206.746L18.96 206.746z" /></clipPath><clipPath id="89"><path id="" clip-rule="evenodd" transform="matrix(1 0 0 1 0 0)" d="M18.96 273.85L561.2401 273.85L561.2401 273.85L561.2401 206.746L561.2401 206.746L18.96 206.746z" /></clipPath><clipPath id="90"><path id="" clip-rule="evenodd" transform="matrix(1 0 0 1 0 0)" d="M18.96 273.85L561.2401 273.85L561.2401 273.85L561.2401 206.746L561.2401 206.746L18.96 206.746z" /></clipPath><clipPath id="91"><path id="" clip-rule="evenodd" transform="matrix(1 0 0 1 0 0)" d="M18.96 273.85L561.2401 273.85L561.2401 273.85L561.2401 206.746L561.2401 206.746L18.96 206.746z" /></clipPath><clipPath id="92"><path id="" clip-rule="evenodd" transform="matrix(1 0 0 1 0 0)" d="M18.96 273.85L561.2401 273.85L561.2401 273.85L561.2401 206.746L561.2401 206.746L18.96 206.746z" /></clipPath><clipPath id="93"><path id="" clip-rule="evenodd" transform="matrix(1 0 0 1 0 0)" d="M18.96 273.85L561.2401 273.85L561.2401 273.85L561.2401 206.746L561.2401 206.746L18.96 206.746z" /></clipPath><clipPath id="94"><path id="" clip-rule="evenodd" transform="matrix(1 0 0 1 0 0)" d="M18.96 273.85L561.2401 273.85L561.2401 273.85L561.2401 206.746L561.2401 206.746L18.96 206.746z" /></clipPath><clipPath id="95"><path id="" clip-rule="evenodd" transform="matrix(1 0 0 1 0 0)" d="M18.96 273.85L561.2401 273.85L561.2401 273.85L561.2401 206.746L561.2401 206.746L18.96 206.746z" /></clipPath><clipPath id="96"><path id="" clip-rule="evenodd" transform="matrix(1 0 0 1 0 0)" d="M18.96 273.85L561.2401 273.85L561.2401 273.85L561.2401 206.746L561.2401 206.746L18.96 206.746z" /></clipPath><clipPath id="97"><path id="" clip-rule="evenodd" transform="matrix(1 0 0 1 0 0)" d="M18.96 273.85L561.2401 273.85L561.2401 273.85L561.2401 206.746L561.2401 206.746L18.96 206.746z" /></clipPath><clipPath id="98"><path id="" clip-rule="evenodd" transform="matrix(1 0 0 1 0 0)" d="M18.96 273.85L561.2401 273.85L561.2401 273.85L561.2401 206.746L561.2401 206.746L18.96 206.746z" /></clipPath><clipPath id="99"><path id="" clip-rule="evenodd" transform="matrix(1 0 0 1 0 0)" d="M18.96 273.85L561.2401 273.85L561.2401 273.85L561.2401 206.746L561.2401 206.746L18.96 206.746z" /></clipPath><clipPath id="100"><path id="" clip-rule="evenodd" transform="matrix(1 0 0 1 0 0)" d="M18.96 273.85L561.2401 273.85L561.2401 273.85L561.2401 206.746L561.2401 206.746L18.96 206.746z" /></clipPath><clipPath id="101"><path id="" clip-rule="evenodd" transform="matrix(1 0 0 1 0 0)" d="M18.96 273.85L561.2401 273.85L561.2401 273.85L561.2401 206.746L561.2401 206.746L18.96 206.746z" /></clipPath><clipPath id="102"><path id="" clip-rule="evenodd" transform="matrix(1 0 0 1 0 0)" d="M18.96 273.85L561.2401 273.85L561.2401 273.85L561.2401 206.746L561.2401 206.746L18.96 206.746z" /></clipPath><clipPath id="103"><path id="" clip-rule="evenodd" transform="matrix(1 0 0 1 0 0)" d="M18.96 273.85L561.2401 273.85L561.2401 273.85L561.2401 206.746L561.2401 206.746L18.96 206.746z" /></clipPath><clipPath id="104"><path id="" clip-rule="evenodd" transform="matrix(1 0 0 1 0 0)" d="M18.96 273.85L561.2401 273.85L561.2401 273.85L561.2401 206.746L561.2401 206.746L18.96 206.746z" /></clipPath><clipPath id="105"><path id="" clip-rule="evenodd" transform="matrix(1 0 0 1 0 0)" d="M18.96 273.85L561.2401 273.85L561.2401 273.85L561.2401 206.746L561.2401 206.746L18.96 206.746z" /></clipPath><clipPath id="106"><path id="" clip-rule="evenodd" transform="matrix(1 0 0 1 0 0)" d="M18.96 273.85L561.2401 273.85L561.2401 273.85L561.2401 206.746L561.2401 206.746L18.96 206.746z" /></clipPath><clipPath id="107"><path id="" clip-rule="evenodd" transform="matrix(1 0 0 1 0 0)" d="M18.96 273.85L561.2401 273.85L561.2401 273.85L561.2401 206.746L561.2401 206.746L18.96 206.746z" /></clipPath><clipPath id="108"><path id="" clip-rule="evenodd" transform="matrix(1 0 0 1 0 0)" d="M18.96 273.85L561.2401 273.85L561.2401 273.85L561.2401 206.746L561.2401 206.746L18.96 206.746z" /></clipPath><clipPath id="109"><path id="" clip-rule="evenodd" transform="matrix(1 0 0 1 0 0)" d="M18.96 273.85L561.2401 273.85L561.2401 273.85L561.2401 206.746L561.2401 206.746L18.96 206.746z" /></clipPath><clipPath id="110"><path id="" clip-rule="evenodd" transform="matrix(1 0 0 1 0 0)" d="M18.96 273.85L561.2401 273.85L561.2401 273.85L561.2401 206.746L561.2401 206.746L18.96 206.746z" /></clipPath><clipPath id="111"><path id="" clip-rule="evenodd" transform="matrix(1 0 0 1 0 0)" d="M18.96 273.85L561.2401 273.85L561.2401 273.85L561.2401 206.746L561.2401 206.746L18.96 206.746z" /></clipPath><clipPath id="112"><path id="" clip-rule="evenodd" transform="matrix(1 0 0 1 0 0)" d="M18.96 273.85L561.2401 273.85L561.2401 273.85L561.2401 206.746L561.2401 206.746L18.96 206.746z" /></clipPath><clipPath id="113"><path id="" clip-rule="evenodd" transform="matrix(1 0 0 1 0 0)" d="M18.96 273.85L561.2401 273.85L561.2401 273.85L561.2401 206.746L561.2401 206.746L18.96 206.746z" /></clipPath><clipPath id="114"><path id="" clip-rule="evenodd" transform="matrix(1 0 0 1 0 0)" d="M15.96 812L570.12 812L570.12 812L570.12 785.36L570.12 785.36L15.96 785.36z" /></clipPath><clipPath id="115"><path id="" clip-rule="evenodd" transform="matrix(1 0 0 1 0 0)" d="M15.96 812L570.12 812L570.12 812L570.12 785.36L570.12 785.36L15.96 785.36z" /></clipPath><clipPath id="116"><path id="" clip-rule="evenodd" transform="matrix(1 0 0 1 0 0)" d="M15.96 812L570.12 812L570.12 812L570.12 785.36L570.12 785.36L15.96 785.36z" /></clipPath><clipPath id="117"><path id="" clip-rule="evenodd" transform="matrix(1 0 0 1 0 0)" d="M15.96 812L570.12 812L570.12 812L570.12 785.36L570.12 785.36L15.96 785.36z" /></clipPath><clipPath id="118"><path id="" clip-rule="evenodd" transform="matrix(1 0 0 1 0 0)" d="M15.96 812L570.12 812L570.12 812L570.12 785.36L570.12 785.36L15.96 785.36z" /></clipPath><clipPath id="119"><path id="" clip-rule="evenodd" transform="matrix(1 0 0 1 0 0)" d="M54.144 191.98L126.384 191.98L126.384 191.98L126.384 172.66L126.384 172.66L54.144 172.66z" /></clipPath><clipPath id="120"><path id="" clip-rule="evenodd" transform="matrix(1 0 0 1 0 0)" d="M54.144 191.98L126.384 191.98L126.384 191.98L126.384 172.66L126.384 172.66L54.144 172.66z" /></clipPath><clipPath id="121"><path id="" clip-rule="evenodd" transform="matrix(1 0 0 1 0 0)" d="M54.144 191.98L126.384 191.98L126.384 191.98L126.384 172.66L126.384 172.66L54.144 172.66z" /></clipPath><clipPath id="122"><path id="" clip-rule="evenodd" transform="matrix(1 0 0 1 0 0)" d="M48 776.36L120.264 776.36L120.264 776.36L120.264 757.04L120.264 757.04L48 757.04z" /></clipPath><clipPath id="123"><path id="" clip-rule="evenodd" transform="matrix(1 0 0 1 0 0)" d="M48 776.36L120.264 776.36L120.264 776.36L120.264 757.04L120.264 757.04L48 757.04z" /></clipPath><clipPath id="124"><path id="" clip-rule="evenodd" transform="matrix(1 0 0 1 0 0)" d="M181.85 107.62L280.274 107.62L280.274 107.62L280.274 90.33997L280.274 90.33997L181.85 90.33997z" /></clipPath><clipPath id="125"><path id="" clip-rule="evenodd" transform="matrix(1 0 0 1 0 0)" d="M181.85 107.62L280.274 107.62L280.274 107.62L280.274 90.33997L280.274 90.33997L181.85 90.33997z" /></clipPath><clipPath id="126"><path id="" clip-rule="evenodd" transform="matrix(1 0 0 1 0 0)" d="M181.85 107.62L280.274 107.62L280.274 107.62L280.274 90.33997L280.274 90.33997L181.85 90.33997z" /></clipPath><clipPath id="127"><path id="" clip-rule="evenodd" transform="matrix(1 0 0 1 0 0)" d="M314.47 108.94L467.85 108.94L467.85 108.94L467.85 91.65997L467.85 91.65997L314.47 91.65997z" /></clipPath><clipPath id="128"><path id="" clip-rule="evenodd" transform="matrix(1 0 0 1 0 0)" d="M314.47 108.94L467.85 108.94L467.85 108.94L467.85 91.65997L467.85 91.65997L314.47 91.65997z" /></clipPath><clipPath id="129"><path id="" clip-rule="evenodd" transform="matrix(1 0 0 1 0 0)" d="M314.47 108.94L467.85 108.94L467.85 108.94L467.85 91.65997L467.85 91.65997L314.47 91.65997z" /></clipPath><clipPath id="130"><path id="" clip-rule="evenodd" transform="matrix(1 0 0 1 0 0)" d="M314.47 108.94L467.85 108.94L467.85 108.94L467.85 91.65997L467.85 91.65997L314.47 91.65997z" /></clipPath><clipPath id="131"><path id="" clip-rule="evenodd" transform="matrix(1 0 0 1 0 0)" d="M183.53 132.22L448.66 132.22L448.66 132.22L448.66 114.8199L448.66 114.8199L183.53 114.8199z" /></clipPath><clipPath id="132"><path id="" clip-rule="evenodd" transform="matrix(1 0 0 1 0 0)" d="M183.53 132.22L448.66 132.22L448.66 132.22L448.66 114.8199L448.66 114.8199L183.53 114.8199z" /></clipPath><clipPath id="133"><path id="" clip-rule="evenodd" transform="matrix(1 0 0 1 0 0)" d="M183.53 132.22L448.66 132.22L448.66 132.22L448.66 114.8199L448.66 114.8199L183.53 114.8199z" /></clipPath><clipPath id="134"><path id="" clip-rule="evenodd" transform="matrix(1 0 0 1 0 0)" d="M0 839L592.56 839L592.56 839L592.56 -0.1599731L592.56 -0.1599731L0 -0.1599731z" /></clipPath><clipPath id="135"><path id="" clip-rule="evenodd" transform="matrix(1 0 0 1 0 0)" d="M0 839L592.56 839L592.56 839L592.56 -0.1599731L592.56 -0.1599731L0 -0.1599731z" /></clipPath><clipPath id="136"><path id="" clip-rule="evenodd" transform="matrix(1 0 0 1 0 0)" d="M52.584 613.5L124.824 613.5L124.824 613.5L124.824 594.18L124.824 594.18L52.584 594.18z" /></clipPath><clipPath id="137"><path id="" clip-rule="evenodd" transform="matrix(1 0 0 1 0 0)" d="M52.584 613.5L124.824 613.5L124.824 613.5L124.824 594.18L124.824 594.18L52.584 594.18z" /></clipPath><clipPath id="138"><path id="" clip-rule="evenodd" transform="matrix(1 0 0 1 0 0)" d="M18.96 737.12L573.12 737.12L573.12 737.12L573.12 620.22L573.12 620.22L18.96 620.22z" /></clipPath><clipPath id="139"><path id="" clip-rule="evenodd" transform="matrix(1 0 0 1 0 0)" d="M18.96 737.12L573.12 737.12L573.12 737.12L573.12 620.22L573.12 620.22L18.96 620.22z" /></clipPath><clipPath id="140"><path id="" clip-rule="evenodd" transform="matrix(1 0 0 1 0 0)" d="M18.96 737.12L573.12 737.12L573.12 737.12L573.12 620.22L573.12 620.22L18.96 620.22z" /></clipPath><clipPath id="141"><path id="" clip-rule="evenodd" transform="matrix(1 0 0 1 0 0)" d="M18.96 737.12L573.12 737.12L573.12 737.12L573.12 620.22L573.12 620.22L18.96 620.22z" /></clipPath><clipPath id="142"><path id="" clip-rule="evenodd" transform="matrix(1 0 0 1 0 0)" d="M18.96 737.12L573.12 737.12L573.12 737.12L573.12 620.22L573.12 620.22L18.96 620.22z" /></clipPath><clipPath id="143"><path id="" clip-rule="evenodd" transform="matrix(1 0 0 1 0 0)" d="M18.96 737.12L573.12 737.12L573.12 737.12L573.12 620.22L573.12 620.22L18.96 620.22z" /></clipPath><clipPath id="144"><path id="" clip-rule="evenodd" transform="matrix(1 0 0 1 0 0)" d="M18.96 737.12L573.12 737.12L573.12 737.12L573.12 620.22L573.12 620.22L18.96 620.22z" /></clipPath><clipPath id="145"><path id="" clip-rule="evenodd" transform="matrix(1 0 0 1 0 0)" d="M18.96 737.12L573.12 737.12L573.12 737.12L573.12 620.22L573.12 620.22L18.96 620.22z" /></clipPath><clipPath id="146"><path id="" clip-rule="evenodd" transform="matrix(1 0 0 1 0 0)" d="M18.96 737.12L573.12 737.12L573.12 737.12L573.12 620.22L573.12 620.22L18.96 620.22z" /></clipPath><clipPath id="147"><path id="" clip-rule="evenodd" transform="matrix(1 0 0 1 0 0)" d="M18.96 737.12L573.12 737.12L573.12 737.12L573.12 620.22L573.12 620.22L18.96 620.22z" /></clipPath><clipPath id="148"><path id="" clip-rule="evenodd" transform="matrix(1 0 0 1 0 0)" d="M18.96 737.12L573.12 737.12L573.12 737.12L573.12 620.22L573.12 620.22L18.96 620.22z" /></clipPath><clipPath id="149"><path id="" clip-rule="evenodd" transform="matrix(1 0 0 1 0 0)" d="M18.96 737.12L573.12 737.12L573.12 737.12L573.12 620.22L573.12 620.22L18.96 620.22z" /></clipPath><clipPath id="150"><path id="" clip-rule="evenodd" transform="matrix(1 0 0 1 0 0)" d="M18.96 737.12L573.12 737.12L573.12 737.12L573.12 620.22L573.12 620.22L18.96 620.22z" /></clipPath><clipPath id="151"><path id="" clip-rule="evenodd" transform="matrix(1 0 0 1 0 0)" d="M18.96 737.12L573.12 737.12L573.12 737.12L573.12 620.22L573.12 620.22L18.96 620.22z" /></clipPath><clipPath id="152"><path id="" clip-rule="evenodd" transform="matrix(1 0 0 1 0 0)" d="M18.96 737.12L573.12 737.12L573.12 737.12L573.12 620.22L573.12 620.22L18.96 620.22z" /></clipPath><clipPath id="153"><path id="" clip-rule="evenodd" transform="matrix(1 0 0 1 0 0)" d="M18.96 737.12L573.12 737.12L573.12 737.12L573.12 620.22L573.12 620.22L18.96 620.22z" /></clipPath><clipPath id="154"><path id="" clip-rule="evenodd" transform="matrix(1 0 0 1 0 0)" d="M18.96 737.12L573.12 737.12L573.12 737.12L573.12 620.22L573.12 620.22L18.96 620.22z" /></clipPath><clipPath id="155"><path id="" clip-rule="evenodd" transform="matrix(1 0 0 1 0 0)" d="M18.96 737.12L573.12 737.12L573.12 737.12L573.12 620.22L573.12 620.22L18.96 620.22z" /></clipPath><clipPath id="156"><path id="" clip-rule="evenodd" transform="matrix(1 0 0 1 0 0)" d="M18.96 737.12L573.12 737.12L573.12 737.12L573.12 620.22L573.12 620.22L18.96 620.22z" /></clipPath><clipPath id="157"><path id="" clip-rule="evenodd" transform="matrix(1 0 0 1 0 0)" d="M18.96 737.12L573.12 737.12L573.12 737.12L573.12 620.22L573.12 620.22L18.96 620.22z" /></clipPath><clipPath id="158"><path id="" clip-rule="evenodd" transform="matrix(1 0 0 1 0 0)" d="M18.96 737.12L573.12 737.12L573.12 737.12L573.12 620.22L573.12 620.22L18.96 620.22z" /></clipPath><clipPath id="159"><path id="" clip-rule="evenodd" transform="matrix(1 0 0 1 0 0)" d="M18.96 737.12L573.12 737.12L573.12 737.12L573.12 620.22L573.12 620.22L18.96 620.22z" /></clipPath><clipPath id="160"><path id="" clip-rule="evenodd" transform="matrix(1 0 0 1 0 0)" d="M18.96 737.12L573.12 737.12L573.12 737.12L573.12 620.22L573.12 620.22L18.96 620.22z" /></clipPath><clipPath id="161"><path id="" clip-rule="evenodd" transform="matrix(1 0 0 1 0 0)" d="M0 839L592.56 839L592.56 839L592.56 -0.1599731L592.56 -0.1599731L0 -0.1599731z" /></clipPath><clipPath id="162"><path id="" clip-rule="evenodd" transform="matrix(1 0 0 1 0 0)" d="M17.64 566.1L558.36 566.1L558.36 566.1L558.36 288.61L558.36 288.61L17.64 288.61z" /></clipPath><clipPath id="163"><path id="" clip-rule="evenodd" transform="matrix(1 0 0 1 0 0)" d="M17.64 566.1L558.36 566.1L558.36 566.1L558.36 288.61L558.36 288.61L17.64 288.61z" /></clipPath><clipPath id="164"><path id="" clip-rule="evenodd" transform="matrix(1 0 0 1 0 0)" d="M17.64 566.1L558.36 566.1L558.36 566.1L558.36 288.61L558.36 288.61L17.64 288.61z" /></clipPath><clipPath id="165"><path id="" clip-rule="evenodd" transform="matrix(1 0 0 1 0 0)" d="M17.64 566.1L558.36 566.1L558.36 566.1L558.36 288.61L558.36 288.61L17.64 288.61z" /></clipPath><clipPath id="166"><path id="" clip-rule="evenodd" transform="matrix(1 0 0 1 0 0)" d="M17.64 566.1L558.36 566.1L558.36 566.1L558.36 288.61L558.36 288.61L17.64 288.61z" /></clipPath><clipPath id="167"><path id="" clip-rule="evenodd" transform="matrix(1 0 0 1 0 0)" d="M17.64 566.1L558.36 566.1L558.36 566.1L558.36 288.61L558.36 288.61L17.64 288.61z" /></clipPath><clipPath id="168"><path id="" clip-rule="evenodd" transform="matrix(1 0 0 1 0 0)" d="M17.64 566.1L558.36 566.1L558.36 566.1L558.36 288.61L558.36 288.61L17.64 288.61z" /></clipPath><clipPath id="169"><path id="" clip-rule="evenodd" transform="matrix(1 0 0 1 0 0)" d="M17.64 566.1L558.36 566.1L558.36 566.1L558.36 288.61L558.36 288.61L17.64 288.61z" /></clipPath><clipPath id="170"><path id="" clip-rule="evenodd" transform="matrix(1 0 0 1 0 0)" d="M17.64 566.1L558.36 566.1L558.36 566.1L558.36 288.61L558.36 288.61L17.64 288.61z" /></clipPath><clipPath id="171"><path id="" clip-rule="evenodd" transform="matrix(1 0 0 1 0 0)" d="M17.64 566.1L558.36 566.1L558.36 566.1L558.36 288.61L558.36 288.61L17.64 288.61z" /></clipPath><clipPath id="172"><path id="" clip-rule="evenodd" transform="matrix(1 0 0 1 0 0)" d="M17.64 566.1L558.36 566.1L558.36 566.1L558.36 288.61L558.36 288.61L17.64 288.61z" /></clipPath><clipPath id="173"><path id="" clip-rule="evenodd" transform="matrix(1 0 0 1 0 0)" d="M17.64 566.1L558.36 566.1L558.36 566.1L558.36 288.61L558.36 288.61L17.64 288.61z" /></clipPath><clipPath id="174"><path id="" clip-rule="evenodd" transform="matrix(1 0 0 1 0 0)" d="M17.64 566.1L558.36 566.1L558.36 566.1L558.36 288.61L558.36 288.61L17.64 288.61z" /></clipPath><clipPath id="175"><path id="" clip-rule="evenodd" transform="matrix(1 0 0 1 0 0)" d="M17.64 566.1L558.36 566.1L558.36 566.1L558.36 288.61L558.36 288.61L17.64 288.61z" /></clipPath><clipPath id="176"><path id="" clip-rule="evenodd" transform="matrix(1 0 0 1 0 0)" d="M17.64 566.1L558.36 566.1L558.36 566.1L558.36 288.61L558.36 288.61L17.64 288.61z" /></clipPath><clipPath id="177"><path id="" clip-rule="evenodd" transform="matrix(1 0 0 1 0 0)" d="M17.64 566.1L558.36 566.1L558.36 566.1L558.36 288.61L558.36 288.61L17.64 288.61z" /></clipPath><clipPath id="178"><path id="" clip-rule="evenodd" transform="matrix(1 0 0 1 0 0)" d="M17.64 566.1L558.36 566.1L558.36 566.1L558.36 288.61L558.36 288.61L17.64 288.61z" /></clipPath><clipPath id="179"><path id="" clip-rule="evenodd" transform="matrix(1 0 0 1 0 0)" d="M17.64 566.1L558.36 566.1L558.36 566.1L558.36 288.61L558.36 288.61L17.64 288.61z" /></clipPath><clipPath id="180"><path id="" clip-rule="evenodd" transform="matrix(1 0 0 1 0 0)" d="M17.64 566.1L558.36 566.1L558.36 566.1L558.36 288.61L558.36 288.61L17.64 288.61z" /></clipPath><clipPath id="181"><path id="" clip-rule="evenodd" transform="matrix(1 0 0 1 0 0)" d="M17.64 566.1L558.36 566.1L558.36 566.1L558.36 288.61L558.36 288.61L17.64 288.61z" /></clipPath><clipPath id="182"><path id="" clip-rule="evenodd" transform="matrix(1 0 0 1 0 0)" d="M17.64 566.1L558.36 566.1L558.36 566.1L558.36 288.61L558.36 288.61L17.64 288.61z" /></clipPath><clipPath id="183"><path id="" clip-rule="evenodd" transform="matrix(1 0 0 1 0 0)" d="M17.64 566.1L558.36 566.1L558.36 566.1L558.36 288.61L558.36 288.61L17.64 288.61z" /></clipPath><clipPath id="184"><path id="" clip-rule="evenodd" transform="matrix(1 0 0 1 0 0)" d="M17.64 566.1L558.36 566.1L558.36 566.1L558.36 288.61L558.36 288.61L17.64 288.61z" /></clipPath><clipPath id="185"><path id="" clip-rule="evenodd" transform="matrix(1 0 0 1 0 0)" d="M17.64 566.1L558.36 566.1L558.36 566.1L558.36 288.61L558.36 288.61L17.64 288.61z" /></clipPath><clipPath id="186"><path id="" clip-rule="evenodd" transform="matrix(1 0 0 1 0 0)" d="M17.64 566.1L558.36 566.1L558.36 566.1L558.36 288.61L558.36 288.61L17.64 288.61z" /></clipPath><clipPath id="187"><path id="" clip-rule="evenodd" transform="matrix(1 0 0 1 0 0)" d="M17.64 566.1L558.36 566.1L558.36 566.1L558.36 288.61L558.36 288.61L17.64 288.61z" /></clipPath><clipPath id="188"><path id="" clip-rule="evenodd" transform="matrix(1 0 0 1 0 0)" d="M17.64 566.1L558.36 566.1L558.36 566.1L558.36 288.61L558.36 288.61L17.64 288.61z" /></clipPath><clipPath id="189"><path id="" clip-rule="evenodd" transform="matrix(1 0 0 1 0 0)" d="M17.64 566.1L558.36 566.1L558.36 566.1L558.36 288.61L558.36 288.61L17.64 288.61z" /></clipPath><clipPath id="190"><path id="" clip-rule="evenodd" transform="matrix(1 0 0 1 0 0)" d="M17.64 566.1L558.36 566.1L558.36 566.1L558.36 288.61L558.36 288.61L17.64 288.61z" /></clipPath><clipPath id="191"><path id="" clip-rule="evenodd" transform="matrix(1 0 0 1 0 0)" d="M17.64 566.1L558.36 566.1L558.36 566.1L558.36 288.61L558.36 288.61L17.64 288.61z" /></clipPath><clipPath id="192"><path id="" clip-rule="evenodd" transform="matrix(1 0 0 1 0 0)" d="M17.64 566.1L558.36 566.1L558.36 566.1L558.36 288.61L558.36 288.61L17.64 288.61z" /></clipPath><clipPath id="193"><path id="" clip-rule="evenodd" transform="matrix(1 0 0 1 0 0)" d="M17.64 566.1L558.36 566.1L558.36 566.1L558.36 288.61L558.36 288.61L17.64 288.61z" /></clipPath><clipPath id="194"><path id="" clip-rule="evenodd" transform="matrix(1 0 0 1 0 0)" d="M17.64 566.1L558.36 566.1L558.36 566.1L558.36 288.61L558.36 288.61L17.64 288.61z" /></clipPath><clipPath id="195"><path id="" clip-rule="evenodd" transform="matrix(1 0 0 1 0 0)" d="M17.64 566.1L558.36 566.1L558.36 566.1L558.36 288.61L558.36 288.61L17.64 288.61z" /></clipPath><clipPath id="196"><path id="" clip-rule="evenodd" transform="matrix(1 0 0 1 0 0)" d="M17.64 566.1L558.36 566.1L558.36 566.1L558.36 288.61L558.36 288.61L17.64 288.61z" /></clipPath><clipPath id="197"><path id="" clip-rule="evenodd" transform="matrix(1 0 0 1 0 0)" d="M17.64 566.1L558.36 566.1L558.36 566.1L558.36 288.61L558.36 288.61L17.64 288.61z" /></clipPath><clipPath id="198"><path id="" clip-rule="evenodd" transform="matrix(1 0 0 1 0 0)" d="M17.64 566.1L558.36 566.1L558.36 566.1L558.36 288.61L558.36 288.61L17.64 288.61z" /></clipPath><clipPath id="199"><path id="" clip-rule="evenodd" transform="matrix(1 0 0 1 0 0)" d="M17.64 566.1L558.36 566.1L558.36 566.1L558.36 288.61L558.36 288.61L17.64 288.61z" /></clipPath><clipPath id="200"><path id="" clip-rule="evenodd" transform="matrix(1 0 0 1 0 0)" d="M17.64 566.1L558.36 566.1L558.36 566.1L558.36 288.61L558.36 288.61L17.64 288.61z" /></clipPath><clipPath id="201"><path id="" clip-rule="evenodd" transform="matrix(1 0 0 1 0 0)" d="M17.64 566.1L558.36 566.1L558.36 566.1L558.36 288.61L558.36 288.61L17.64 288.61z" /></clipPath><clipPath id="202"><path id="" clip-rule="evenodd" transform="matrix(1 0 0 1 0 0)" d="M17.64 566.1L558.36 566.1L558.36 566.1L558.36 288.61L558.36 288.61L17.64 288.61z" /></clipPath><clipPath id="203"><path id="" clip-rule="evenodd" transform="matrix(1 0 0 1 0 0)" d="M17.64 566.1L558.36 566.1L558.36 566.1L558.36 288.61L558.36 288.61L17.64 288.61z" /></clipPath><clipPath id="204"><path id="" clip-rule="evenodd" transform="matrix(1 0 0 1 0 0)" d="M17.64 566.1L558.36 566.1L558.36 566.1L558.36 288.61L558.36 288.61L17.64 288.61z" /></clipPath><clipPath id="205"><path id="" clip-rule="evenodd" transform="matrix(1 0 0 1 0 0)" d="M17.64 566.1L558.36 566.1L558.36 566.1L558.36 288.61L558.36 288.61L17.64 288.61z" /></clipPath><clipPath id="206"><path id="" clip-rule="evenodd" transform="matrix(1 0 0 1 0 0)" d="M17.64 566.1L558.36 566.1L558.36 566.1L558.36 288.61L558.36 288.61L17.64 288.61z" /></clipPath><clipPath id="207"><path id="" clip-rule="evenodd" transform="matrix(1 0 0 1 0 0)" d="M17.64 566.1L558.36 566.1L558.36 566.1L558.36 288.61L558.36 288.61L17.64 288.61z" /></clipPath><clipPath id="208"><path id="" clip-rule="evenodd" transform="matrix(1 0 0 1 0 0)" d="M17.64 566.1L558.36 566.1L558.36 566.1L558.36 288.61L558.36 288.61L17.64 288.61z" /></clipPath><clipPath id="209"><path id="" clip-rule="evenodd" transform="matrix(1 0 0 1 0 0)" d="M17.64 566.1L558.36 566.1L558.36 566.1L558.36 288.61L558.36 288.61L17.64 288.61z" /></clipPath><clipPath id="210"><path id="" clip-rule="evenodd" transform="matrix(1 0 0 1 0 0)" d="M17.64 566.1L558.36 566.1L558.36 566.1L558.36 288.61L558.36 288.61L17.64 288.61z" /></clipPath><clipPath id="211"><path id="" clip-rule="evenodd" transform="matrix(1 0 0 1 0 0)" d="M17.64 566.1L558.36 566.1L558.36 566.1L558.36 288.61L558.36 288.61L17.64 288.61z" /></clipPath><clipPath id="212"><path id="" clip-rule="evenodd" transform="matrix(1 0 0 1 0 0)" d="M17.64 566.1L558.36 566.1L558.36 566.1L558.36 288.61L558.36 288.61L17.64 288.61z" /></clipPath><clipPath id="213"><path id="" clip-rule="evenodd" transform="matrix(1 0 0 1 0 0)" d="M17.64 566.1L558.36 566.1L558.36 566.1L558.36 288.61L558.36 288.61L17.64 288.61z" /></clipPath><clipPath id="214"><path id="" clip-rule="evenodd" transform="matrix(1 0 0 1 0 0)" d="M17.64 566.1L558.36 566.1L558.36 566.1L558.36 288.61L558.36 288.61L17.64 288.61z" /></clipPath><clipPath id="215"><path id="" clip-rule="evenodd" transform="matrix(1 0 0 1 0 0)" d="M17.64 566.1L558.36 566.1L558.36 566.1L558.36 288.61L558.36 288.61L17.64 288.61z" /></clipPath><clipPath id="216"><path id="" clip-rule="evenodd" transform="matrix(1 0 0 1 0 0)" d="M17.64 566.1L558.36 566.1L558.36 566.1L558.36 288.61L558.36 288.61L17.64 288.61z" /></clipPath><clipPath id="217"><path id="" clip-rule="evenodd" transform="matrix(1 0 0 1 0 0)" d="M17.64 566.1L558.36 566.1L558.36 566.1L558.36 288.61L558.36 288.61L17.64 288.61z" /></clipPath><clipPath id="218"><path id="" clip-rule="evenodd" transform="matrix(1 0 0 1 0 0)" d="M17.64 566.1L558.36 566.1L558.36 566.1L558.36 288.61L558.36 288.61L17.64 288.61z" /></clipPath><clipPath id="219"><path id="" clip-rule="evenodd" transform="matrix(1 0 0 1 0 0)" d="M17.64 566.1L558.36 566.1L558.36 566.1L558.36 288.61L558.36 288.61L17.64 288.61z" /></clipPath><clipPath id="220"><path id="" clip-rule="evenodd" transform="matrix(1 0 0 1 0 0)" d="M17.64 566.1L558.36 566.1L558.36 566.1L558.36 288.61L558.36 288.61L17.64 288.61z" /></clipPath><clipPath id="221"><path id="" clip-rule="evenodd" transform="matrix(1 0 0 1 0 0)" d="M17.64 566.1L558.36 566.1L558.36 566.1L558.36 288.61L558.36 288.61L17.64 288.61z" /></clipPath><clipPath id="222"><path id="" clip-rule="evenodd" transform="matrix(1 0 0 1 0 0)" d="M17.64 566.1L558.36 566.1L558.36 566.1L558.36 288.61L558.36 288.61L17.64 288.61z" /></clipPath><clipPath id="223"><path id="" clip-rule="evenodd" transform="matrix(1 0 0 1 0 0)" d="M17.64 566.1L558.36 566.1L558.36 566.1L558.36 288.61L558.36 288.61L17.64 288.61z" /></clipPath><clipPath id="224"><path id="" clip-rule="evenodd" transform="matrix(1 0 0 1 0 0)" d="M17.64 566.1L558.36 566.1L558.36 566.1L558.36 288.61L558.36 288.61L17.64 288.61z" /></clipPath><clipPath id="225"><path id="" clip-rule="evenodd" transform="matrix(1 0 0 1 0 0)" d="M17.64 566.1L558.36 566.1L558.36 566.1L558.36 288.61L558.36 288.61L17.64 288.61z" /></clipPath><clipPath id="226"><path id="" clip-rule="evenodd" transform="matrix(1 0 0 1 0 0)" d="M17.64 566.1L558.36 566.1L558.36 566.1L558.36 288.61L558.36 288.61L17.64 288.61z" /></clipPath><clipPath id="227"><path id="" clip-rule="evenodd" transform="matrix(1 0 0 1 0 0)" d="M17.64 566.1L558.36 566.1L558.36 566.1L558.36 288.61L558.36 288.61L17.64 288.61z" /></clipPath><clipPath id="228"><path id="" clip-rule="evenodd" transform="matrix(1 0 0 1 0 0)" d="M17.64 566.1L558.36 566.1L558.36 566.1L558.36 288.61L558.36 288.61L17.64 288.61z" /></clipPath><clipPath id="229"><path id="" clip-rule="evenodd" transform="matrix(1 0 0 1 0 0)" d="M17.64 566.1L558.36 566.1L558.36 566.1L558.36 288.61L558.36 288.61L17.64 288.61z" /></clipPath><clipPath id="230"><path id="" clip-rule="evenodd" transform="matrix(1 0 0 1 0 0)" d="M17.64 566.1L558.36 566.1L558.36 566.1L558.36 288.61L558.36 288.61L17.64 288.61z" /></clipPath><clipPath id="231"><path id="" clip-rule="evenodd" transform="matrix(1 0 0 1 0 0)" d="M17.64 566.1L558.36 566.1L558.36 566.1L558.36 288.61L558.36 288.61L17.64 288.61z" /></clipPath><clipPath id="232"><path id="" clip-rule="evenodd" transform="matrix(1 0 0 1 0 0)" d="M17.64 566.1L558.36 566.1L558.36 566.1L558.36 288.61L558.36 288.61L17.64 288.61z" /></clipPath><clipPath id="233"><path id="" clip-rule="evenodd" transform="matrix(1 0 0 1 0 0)" d="M17.64 566.1L558.36 566.1L558.36 566.1L558.36 288.61L558.36 288.61L17.64 288.61z" /></clipPath><clipPath id="234"><path id="" clip-rule="evenodd" transform="matrix(1 0 0 1 0 0)" d="M17.64 566.1L558.36 566.1L558.36 566.1L558.36 288.61L558.36 288.61L17.64 288.61z" /></clipPath><clipPath id="235"><path id="" clip-rule="evenodd" transform="matrix(1 0 0 1 0 0)" d="M17.64 566.1L558.36 566.1L558.36 566.1L558.36 288.61L558.36 288.61L17.64 288.61z" /></clipPath><clipPath id="236"><path id="" clip-rule="evenodd" transform="matrix(1 0 0 1 0 0)" d="M17.64 566.1L558.36 566.1L558.36 566.1L558.36 288.61L558.36 288.61L17.64 288.61z" /></clipPath><clipPath id="237"><path id="" clip-rule="evenodd" transform="matrix(1 0 0 1 0 0)" d="M17.64 566.1L558.36 566.1L558.36 566.1L558.36 288.61L558.36 288.61L17.64 288.61z" /></clipPath><clipPath id="238"><path id="" clip-rule="evenodd" transform="matrix(1 0 0 1 0 0)" d="M17.64 566.1L558.36 566.1L558.36 566.1L558.36 288.61L558.36 288.61L17.64 288.61z" /></clipPath><clipPath id="239"><path id="" clip-rule="evenodd" transform="matrix(1 0 0 1 0 0)" d="M17.64 566.1L558.36 566.1L558.36 566.1L558.36 288.61L558.36 288.61L17.64 288.61z" /></clipPath><clipPath id="240"><path id="" clip-rule="evenodd" transform="matrix(1 0 0 1 0 0)" d="M17.64 566.1L558.36 566.1L558.36 566.1L558.36 288.61L558.36 288.61L17.64 288.61z" /></clipPath><clipPath id="241"><path id="" clip-rule="evenodd" transform="matrix(1 0 0 1 0 0)" d="M17.64 566.1L558.36 566.1L558.36 566.1L558.36 288.61L558.36 288.61L17.64 288.61z" /></clipPath><clipPath id="242"><path id="" clip-rule="evenodd" transform="matrix(1 0 0 1 0 0)" d="M17.64 566.1L558.36 566.1L558.36 566.1L558.36 288.61L558.36 288.61L17.64 288.61z" /></clipPath><clipPath id="243"><path id="" clip-rule="evenodd" transform="matrix(1 0 0 1 0 0)" d="M17.64 566.1L558.36 566.1L558.36 566.1L558.36 288.61L558.36 288.61L17.64 288.61z" /></clipPath><clipPath id="244"><path id="" clip-rule="evenodd" transform="matrix(1 0 0 1 0 0)" d="M17.64 566.1L558.36 566.1L558.36 566.1L558.36 288.61L558.36 288.61L17.64 288.61z" /></clipPath><clipPath id="245"><path id="" clip-rule="evenodd" transform="matrix(1 0 0 1 0 0)" d="M17.64 566.1L558.36 566.1L558.36 566.1L558.36 288.61L558.36 288.61L17.64 288.61z" /></clipPath><clipPath id="246"><path id="" clip-rule="evenodd" transform="matrix(1 0 0 1 0 0)" d="M17.64 566.1L558.36 566.1L558.36 566.1L558.36 288.61L558.36 288.61L17.64 288.61z" /></clipPath><clipPath id="247"><path id="" clip-rule="evenodd" transform="matrix(1 0 0 1 0 0)" d="M17.64 566.1L558.36 566.1L558.36 566.1L558.36 288.61L558.36 288.61L17.64 288.61z" /></clipPath><clipPath id="248"><path id="" clip-rule="evenodd" transform="matrix(1 0 0 1 0 0)" d="M17.64 566.1L558.36 566.1L558.36 566.1L558.36 288.61L558.36 288.61L17.64 288.61z" /></clipPath><clipPath id="249"><path id="" clip-rule="evenodd" transform="matrix(1 0 0 1 0 0)" d="M17.64 566.1L558.36 566.1L558.36 566.1L558.36 288.61L558.36 288.61L17.64 288.61z" /></clipPath><clipPath id="250"><path id="" clip-rule="evenodd" transform="matrix(1 0 0 1 0 0)" d="M17.64 566.1L558.36 566.1L558.36 566.1L558.36 288.61L558.36 288.61L17.64 288.61z" /></clipPath><clipPath id="251"><path id="" clip-rule="evenodd" transform="matrix(1 0 0 1 0 0)" d="M17.64 566.1L558.36 566.1L558.36 566.1L558.36 288.61L558.36 288.61L17.64 288.61z" /></clipPath><clipPath id="252"><path id="" clip-rule="evenodd" transform="matrix(1 0 0 1 0 0)" d="M17.64 566.1L558.36 566.1L558.36 566.1L558.36 288.61L558.36 288.61L17.64 288.61z" /></clipPath><clipPath id="253"><path id="" clip-rule="evenodd" transform="matrix(1 0 0 1 0 0)" d="M17.64 566.1L558.36 566.1L558.36 566.1L558.36 288.61L558.36 288.61L17.64 288.61z" /></clipPath><clipPath id="254"><path id="" clip-rule="evenodd" transform="matrix(1 0 0 1 0 0)" d="M17.64 566.1L558.36 566.1L558.36 566.1L558.36 288.61L558.36 288.61L17.64 288.61z" /></clipPath><clipPath id="255"><path id="" clip-rule="evenodd" transform="matrix(1 0 0 1 0 0)" d="M17.64 566.1L558.36 566.1L558.36 566.1L558.36 288.61L558.36 288.61L17.64 288.61z" /></clipPath><clipPath id="256"><path id="" clip-rule="evenodd" transform="matrix(1 0 0 1 0 0)" d="M17.64 566.1L558.36 566.1L558.36 566.1L558.36 288.61L558.36 288.61L17.64 288.61z" /></clipPath><clipPath id="257"><path id="" clip-rule="evenodd" transform="matrix(1 0 0 1 0 0)" d="M17.64 566.1L558.36 566.1L558.36 566.1L558.36 288.61L558.36 288.61L17.64 288.61z" /></clipPath><clipPath id="258"><path id="" clip-rule="evenodd" transform="matrix(1 0 0 1 0 0)" d="M17.64 566.1L558.36 566.1L558.36 566.1L558.36 288.61L558.36 288.61L17.64 288.61z" /></clipPath><clipPath id="259"><path id="" clip-rule="evenodd" transform="matrix(1 0 0 1 0 0)" d="M17.64 566.1L558.36 566.1L558.36 566.1L558.36 288.61L558.36 288.61L17.64 288.61z" /></clipPath><clipPath id="260"><path id="" clip-rule="evenodd" transform="matrix(1 0 0 1 0 0)" d="M17.64 566.1L558.36 566.1L558.36 566.1L558.36 288.61L558.36 288.61L17.64 288.61z" /></clipPath><clipPath id="261"><path id="" clip-rule="evenodd" transform="matrix(1 0 0 1 0 0)" d="M17.64 566.1L558.36 566.1L558.36 566.1L558.36 288.61L558.36 288.61L17.64 288.61z" /></clipPath><clipPath id="262"><path id="" clip-rule="evenodd" transform="matrix(1 0 0 1 0 0)" d="M17.64 566.1L558.36 566.1L558.36 566.1L558.36 288.61L558.36 288.61L17.64 288.61z" /></clipPath><clipPath id="263"><path id="" clip-rule="evenodd" transform="matrix(1 0 0 1 0 0)" d="M17.64 566.1L558.36 566.1L558.36 566.1L558.36 288.61L558.36 288.61L17.64 288.61z" /></clipPath><clipPath id="264"><path id="" clip-rule="evenodd" transform="matrix(1 0 0 1 0 0)" d="M17.64 566.1L558.36 566.1L558.36 566.1L558.36 288.61L558.36 288.61L17.64 288.61z" /></clipPath><clipPath id="265"><path id="" clip-rule="evenodd" transform="matrix(1 0 0 1 0 0)" d="M17.64 566.1L558.36 566.1L558.36 566.1L558.36 288.61L558.36 288.61L17.64 288.61z" /></clipPath><clipPath id="266"><path id="" clip-rule="evenodd" transform="matrix(1 0 0 1 0 0)" d="M17.64 566.1L558.36 566.1L558.36 566.1L558.36 288.61L558.36 288.61L17.64 288.61z" /></clipPath><clipPath id="267"><path id="" clip-rule="evenodd" transform="matrix(1 0 0 1 0 0)" d="M17.64 566.1L558.36 566.1L558.36 566.1L558.36 288.61L558.36 288.61L17.64 288.61z" /></clipPath><clipPath id="268"><path id="" clip-rule="evenodd" transform="matrix(1 0 0 1 0 0)" d="M17.64 566.1L558.36 566.1L558.36 566.1L558.36 288.61L558.36 288.61L17.64 288.61z" /></clipPath><clipPath id="269"><path id="" clip-rule="evenodd" transform="matrix(1 0 0 1 0 0)" d="M17.64 566.1L558.36 566.1L558.36 566.1L558.36 288.61L558.36 288.61L17.64 288.61z" /></clipPath><clipPath id="270"><path id="" clip-rule="evenodd" transform="matrix(1 0 0 1 0 0)" d="M17.64 566.1L558.36 566.1L558.36 566.1L558.36 288.61L558.36 288.61L17.64 288.61z" /></clipPath><clipPath id="271"><path id="" clip-rule="evenodd" transform="matrix(1 0 0 1 0 0)" d="M17.64 566.1L558.36 566.1L558.36 566.1L558.36 288.61L558.36 288.61L17.64 288.61z" /></clipPath><clipPath id="272"><path id="" clip-rule="evenodd" transform="matrix(1 0 0 1 0 0)" d="M17.64 566.1L558.36 566.1L558.36 566.1L558.36 288.61L558.36 288.61L17.64 288.61z" /></clipPath><clipPath id="273"><path id="" clip-rule="evenodd" transform="matrix(1 0 0 1 0 0)" d="M17.64 566.1L558.36 566.1L558.36 566.1L558.36 288.61L558.36 288.61L17.64 288.61z" /></clipPath><clipPath id="274"><path id="" clip-rule="evenodd" transform="matrix(1 0 0 1 0 0)" d="M17.64 566.1L558.36 566.1L558.36 566.1L558.36 288.61L558.36 288.61L17.64 288.61z" /></clipPath><clipPath id="275"><path id="" clip-rule="evenodd" transform="matrix(1 0 0 1 0 0)" d="M54.144 282.49L126.384 282.49L126.384 282.49L126.384 263.05L126.384 263.05L54.144 263.05z" /></clipPath><clipPath id="276"><path id="" clip-rule="evenodd" transform="matrix(1 0 0 1 0 0)" d="M54.144 282.49L126.384 282.49L126.384 282.49L126.384 263.05L126.384 263.05L54.144 263.05z" /></clipPath></defs><g transform="matrix(1.333333 0 0 1.333333 0 0)"><g clip-path="url(#1)"><g clip-path="url(#2)"><path id="1" transform="matrix(1 0 0 -1 0 839)" d="M0 -2.89L595.45 -2.89L595.45 -2.89L595.45 839.16L595.45 839.16L0 839.16z" stroke="none" fill="#FFFFFF" fill-rule="evenodd" /></g><g clip-path="url(#3)"><path id="2" transform="matrix(1 0 0 -1 0 839)" d="M0 695.76L553.15 695.76L553.15 695.76L553.15 763.71L553.15 763.71L0 763.71z" stroke="none" fill="#323E4F" fill-rule="evenodd" /></g><g clip-path="url(#4)"></g><g clip-path="url(#5)"></g><g clip-path="url(#6)"></g><g clip-path="url(#7)"></g><g clip-path="url(#8)"></g><g clip-path="url(#9)"></g><g clip-path="url(#10)"></g><g clip-path="url(#11)"></g><g clip-path="url(#12)"></g><g clip-path="url(#13)"></g><g clip-path="url(#14)"></g><g clip-path="url(#15)"></g><g clip-path="url(#16)"></g><g clip-path="url(#17)"></g><g clip-path="url(#18)"></g><g clip-path="url(#19)"></g><g clip-path="url(#20)"></g><g clip-path="url(#21)"></g><g clip-path="url(#22)"></g><g clip-path="url(#23)"></g><g clip-path="url(#24)"></g><g clip-path="url(#25)"></g><g clip-path="url(#26)"></g><g clip-path="url(#27)"></g><g clip-path="url(#28)"></g><g clip-path="url(#29)"></g><g clip-path="url(#30)"></g><g clip-path="url(#31)"></g><g clip-path="url(#32)"></g><g clip-path="url(#33)"></g><g clip-path="url(#34)"></g><g clip-path="url(#35)"></g><g clip-path="url(#36)"></g><g clip-path="url(#37)"></g><g clip-path="url(#38)"></g><g clip-path="url(#39)"></g><g clip-path="url(#40)"></g><g clip-path="url(#41)"></g><g clip-path="url(#42)"></g><g clip-path="url(#43)"></g><g clip-path="url(#44)"></g><g clip-path="url(#45)"></g><g clip-path="url(#46)"></g><g clip-path="url(#47)"></g><g clip-path="url(#48)"></g><g clip-path="url(#49)"></g><g clip-path="url(#50)"></g><g clip-path="url(#51)"></g><g clip-path="url(#52)"></g><g clip-path="url(#53)"></g><g clip-path="url(#54)"></g><g clip-path="url(#55)"></g><g clip-path="url(#56)"></g><g clip-path="url(#57)"></g><g clip-path="url(#58)"></g><g clip-path="url(#59)"></g><g clip-path="url(#60)"></g><g clip-path="url(#61)"></g><g clip-path="url(#62)"></g><g clip-path="url(#63)"></g><g clip-path="url(#64)"></g><g clip-path="url(#65)"></g><g clip-path="url(#66)"></g><g clip-path="url(#67)"></g><g clip-path="url(#68)"></g><g clip-path="url(#69)"></g><g clip-path="url(#70)"></g><g clip-path="url(#71)"></g><g clip-path="url(#72)"></g><g clip-path="url(#73)"></g><g clip-path="url(#74)"></g><g clip-path="url(#75)"></g><g clip-path="url(#76)"></g><g clip-path="url(#77)"></g><g clip-path="url(#78)"></g><g clip-path="url(#79)"></g><g clip-path="url(#80)"></g><g clip-path="url(#81)"></g><g clip-path="url(#82)"></g><g clip-path="url(#83)"></g><g clip-path="url(#84)"></g><g clip-path="url(#85)"></g><g clip-path="url(#86)"></g><g clip-path="url(#87)"></g><g clip-path="url(#88)"></g><g clip-path="url(#89)"></g><g clip-path="url(#90)"></g><g clip-path="url(#91)"></g><g clip-path="url(#92)"></g><g clip-path="url(#93)"></g><g clip-path="url(#94)"></g><g clip-path="url(#95)"></g><g clip-path="url(#96)"></g><g clip-path="url(#97)"></g><g clip-path="url(#98)"></g><g clip-path="url(#99)"></g><g clip-path="url(#100)"></g><g clip-path="url(#101)"></g><g clip-path="url(#102)"></g><g clip-path="url(#103)"></g><g clip-path="url(#104)"></g><g clip-path="url(#105)"></g><g clip-path="url(#106)"></g><g clip-path="url(#107)"></g><g clip-path="url(#108)"></g><g clip-path="url(#109)"></g><g clip-path="url(#110)"></g><g clip-path="url(#111)"></g><g clip-path="url(#112)"></g><g clip-path="url(#113)"></g><g clip-path="url(#114)"></g><g clip-path="url(#115)"></g><g clip-path="url(#116)"></g><g clip-path="url(#117)"></g><g clip-path="url(#118)"></g><g clip-path="url(#119)"></g><g clip-path="url(#120)"></g><g clip-path="url(#121)"></g><g clip-path="url(#122)"></g><g clip-path="url(#123)"></g><g clip-path="url(#124)"></g><g clip-path="url(#125)"></g><g clip-path="url(#126)"></g><path id="184" transform="matrix(1 0 0 -1 0 839)" d="M172.84 733.75C 172.97 733.76 173.13 733.77 173.3 733.8C 173.71 733.87 174.08 734.01 174.39 734.3C 174.61 734.51 174.73 734.77 174.63 735.08C 174.44 735.64 174.14 736.13 173.7 736.53C 173.39 736.81 173.03 736.93 172.62 736.8C 172.36 736.71 172.1 736.57 171.84 736.44C 171.6 736.31 171.36 736.3 171.15 736.46C 170.92 736.63 170.68 736.82 170.49 737.04C 169.88 737.75 169.42 738.56 169.01 739.4C 168.8 739.85 168.6 740.31 168.56 740.81C 168.53 741.14 168.62 741.41 168.93 741.58C 169.11 741.67 169.29 741.78 169.44 741.9C 169.75 742.14 169.96 742.45 169.92 742.85C 169.87 743.58 169.54 744.19 169.02 744.69C 168.93 744.79 168.76 744.84 168.63 744.85C 168.24 744.88 167.93 744.69 167.65 744.45C 166.97 743.86 166.68 743.1 166.64 742.23C 166.6 741.57 166.77 740.94 167 740.33C 167.4 739.26 167.91 738.26 168.51 737.3C 169.06 736.41 169.65 735.54 170.41 734.8C 171.07 734.16 171.86 733.78 172.84 733.75zM162.3 739.02C 162.3 739.19 162.3 739.36 162.3 739.54C 162.31 739.62 162.33 739.71 162.34 739.79C 162.36 740.05 162.37 740.32 162.42 740.58C 162.68 742.23 163.35 743.69 164.49 744.91C 166.48 747.02 168.93 747.91 171.82 747.54C 173.74 747.3 175.37 746.44 176.69 745.04C 178.56 743.02 179.3 740.63 178.85 737.93C 178.42 735.33 177.01 733.38 174.74 732.06C 173.34 731.25 171.8 730.91 170.18 731C 169.12 731.06 168.12 731.3 167.16 731.75C 165.59 732.48 164.36 733.59 163.47 735.08C 162.91 736.02 162.55 737.03 162.41 738.12C 162.36 738.42 162.34 738.72 162.3 739.02z" stroke="none" fill="#FFFFFF" fill-rule="evenodd" /><path id="185" transform="matrix(1 0 0 -1 0 839)" d="M303.62 736.15C 304.83 737.19 306.02 738.22 307.21 739.25C 306.01 740.29 304.83 741.31 303.62 742.35C 303.62 740.27 303.62 738.23 303.62 736.15zM314.06 736.16C 314.06 738.23 314.06 740.27 314.06 742.34C 312.86 741.3 311.68 740.28 310.48 739.25C 311.68 738.21 312.87 737.19 314.06 736.16zM313.73 735.83C 312.53 736.87 311.34 737.88 310.15 738.9C 309.71 738.54 309.28 738.17 308.85 737.82C 308.4 738.18 307.97 738.54 307.52 738.9C 306.34 737.88 305.16 736.86 303.96 735.83C 307.24 735.83 310.46 735.83 313.73 735.83zM303.96 742.67C 305.61 741.24 307.22 739.84 308.85 738.43C 310.48 739.84 312.09 741.24 313.74 742.67C 310.46 742.67 307.24 742.67 303.96 742.67zM300.35 739.41C 300.35 744.12 304.15 747.91 308.87 747.91C 313.55 747.91 317.35 744.1 317.35 739.4C 317.35 734.7 313.53 730.91 308.81 730.92C 304.15 730.92 300.35 734.73 300.35 739.41z" stroke="none" fill="#FFFFFF" fill-rule="evenodd" /><path id="186" transform="matrix(1 0 0 -1 0 839)" d="M163.9 727.56L467.2 727.56" stroke="#F2F2F2" stroke-width="0.75" stroke-dasharray="4,3" fill="none" /><g clip-path="url(#127)"></g><g clip-path="url(#128)"></g><g clip-path="url(#129)"></g><g clip-path="url(#130)"></g><g clip-path="url(#131)"></g><g clip-path="url(#132)"></g><g clip-path="url(#133)"></g><path id="218" transform="matrix(1 0 0 -1 0 839)" d="M163.5 704.36L466.8 704.36" stroke="#F2F2F2" stroke-width="0.75" stroke-dasharray="4,3" fill="none" /><path id="219" transform="matrix(1 0 0 -1 0 839)" d="M170.25 724.41C 165.56 724.41 161.75 720.6 161.75 715.91C 161.75 711.22 165.56 707.41 170.25 707.41C 174.94 707.41 178.75 711.22 178.75 715.91C 178.75 720.6 174.94 724.41 170.25 724.41z" stroke="none" fill="#FFFFFF" fill-rule="evenodd" /><path id="220" transform="matrix(1 0 0 -1 0 839)" d="M173.54 713.93C 173.54 713.44 173.54 712.94 173.55 712.44C 173.55 711.71 173.07 711.18 172.42 711.17C 172.19 711.17 171.95 711.17 171.72 711.17C 171.54 711.16 171.45 711.24 171.45 711.46C 171.46 712.26 171.45 713.07 171.45 713.87C 171.45 714.59 171.08 715.17 170.48 715.42C 169.9 715.67 169.25 715.51 168.83 714.99C 168.59 714.69 168.46 714.35 168.45 713.95C 168.45 713.13 168.45 712.31 168.45 711.49C 168.45 711.21 168.41 711.17 168.15 711.17C 167.86 711.18 167.56 711.16 167.28 711.21C 166.72 711.3 166.37 711.74 166.36 712.36C 166.35 713.42 166.36 714.48 166.37 715.54C 166.37 715.68 166.44 715.85 166.53 715.95C 167.61 717.11 168.7 718.27 169.78 719.43C 169.95 719.61 170.06 719.49 170.18 719.37C 170.74 718.77 171.3 718.17 171.87 717.57C 172.36 717.04 172.85 716.51 173.35 715.99C 173.49 715.85 173.55 715.68 173.54 715.48C 173.54 714.96 173.54 714.45 173.54 713.93C 173.54 713.93 173.54 713.93 173.54 713.93z" stroke="none" fill="#323E4F" fill-rule="evenodd" /><path id="221" transform="matrix(1 0 0 -1 0 839)" d="M171.92 720.24C 171.92 720.61 171.92 720.97 171.92 721.34C 171.92 721.59 171.97 721.83 172.2 721.93C 172.46 722.04 172.74 722.07 173 721.88C 173.15 721.77 173.19 721.6 173.19 721.4C 173.19 720.6 173.2 719.81 173.19 719.01C 173.19 718.84 173.24 718.72 173.35 718.6C 173.78 718.16 174.19 717.72 174.61 717.27C 174.83 717.03 174.85 716.72 174.66 716.5C 174.45 716.26 174.14 716.25 173.92 716.49C 172.68 717.8 171.45 719.1 170.22 720.41C 170.11 720.53 170.01 720.64 169.9 720.75C 169.7 720.93 169.51 720.93 169.31 720.73C 169.08 720.48 168.85 720.24 168.61 719.98C 167.53 718.83 166.44 717.68 165.36 716.52C 165.1 716.25 164.87 716.21 164.63 716.39C 164.36 716.6 164.35 716.97 164.61 717.26C 165.04 717.72 165.46 718.17 165.89 718.63C 167.06 719.86 168.22 721.1 169.38 722.33C 169.6 722.56 169.65 722.55 169.87 722.32C 170.48 721.67 171.09 721.02 171.7 720.37C 171.75 720.31 171.81 720.27 171.86 720.21C 171.89 720.23 171.9 720.24 171.92 720.24z" stroke="none" fill="#323E4F" fill-rule="evenodd" /><path id="222" transform="matrix(1 0 0 -1 0 839)" d="M43.1 645.61L547.65 645.61" stroke="#323E4F" stroke-width="1" stroke-dasharray="4,3" fill="none" /><path id="223" transform="matrix(1 0 0 -1 0 839)" d="M37.75 61.16L542.3 61.16" stroke="#323E4F" stroke-width="1" stroke-dasharray="4,3" fill="none" /><path id="224" transform="matrix(1 0 0 -1 0 839)" d="M51.075 661.76L44.7 661.76L44.7 661.76L44.7 653.26L44.7 653.26L51.075 653.26L51.075 653.26L53.2 657.51z" stroke="none" fill="#323E4F" fill-rule="evenodd" /><path id="225" transform="matrix(1 0 0 -1 0 839)" d="M44.975 77.11L38.6 77.11L38.6 77.11L38.6 68.61L38.6 68.61L44.975 68.61L44.975 68.61L47.1 72.86z" stroke="none" fill="#323E4F" fill-rule="evenodd" /><path id="226" transform="matrix(1 0 0 -1 0 839)" d="M42.15 682.01L553.15 682.01L553.15 682.01L553.15 689.16L553.15 689.16L42.15 689.16z" stroke="none" fill="#323E4F" fill-rule="evenodd" /><g clip-path="url(#134)"><path id="227" transform="matrix(1 0 0 -1 0 839)" d="M0 -15.24L17 -15.24L17 -15.24L17 839.16L17 839.16L0 839.16z" stroke="none" fill="#323E4F" fill-rule="evenodd" /></g><g clip-path="url(#135)"><path id="228" transform="matrix(1 0 0 -1 0 839)" d="M585.6 -7.44L592.4 -7.44L592.4 -7.44L592.4 846.96L592.4 846.96L585.6 846.96z" stroke="none" fill="#323E4F" fill-rule="evenodd" /></g><g clip-path="url(#136)"></g><g clip-path="url(#137)"></g><path id="233" transform="matrix(1 0 0 -1 0 839)" d="M42.35 224.01L546.9 224.01" stroke="#323E4F" stroke-width="1" stroke-dasharray="4,3" fill="none" /><path id="234" transform="matrix(1 0 0 -1 0 839)" d="M49.575 239.96L43.2 239.96L43.2 239.96L43.2 231.46L43.2 231.46L49.575 231.46L49.575 231.46L51.7 235.71z" stroke="none" fill="#323E4F" fill-rule="evenodd" /><g clip-path="url(#138)"></g><g clip-path="url(#139)"></g><g clip-path="url(#140)"></g><g clip-path="url(#141)"></g><g clip-path="url(#142)"></g><g clip-path="url(#143)"></g><g clip-path="url(#144)"></g><g clip-path="url(#145)"></g><g clip-path="url(#146)"></g><g clip-path="url(#147)"></g><g clip-path="url(#148)"></g><g clip-path="url(#149)"></g><g clip-path="url(#150)"></g><g clip-path="url(#151)"></g><g clip-path="url(#152)"></g><g clip-path="url(#153)"></g><g clip-path="url(#154)"></g><g clip-path="url(#155)"></g><g clip-path="url(#156)"></g><g clip-path="url(#157)"></g><g clip-path="url(#158)"></g><g clip-path="url(#159)"></g><g clip-path="url(#160)"></g><g clip-path="url(#161)"><g transform="matrix(0.3606272 0 0 0.3601626 26.25 4.790039)"><g transform="matrix(1 0 0 1 0 0)"><image x="0" y="0" xlink:href="img_01.png" width="287" height="369" /></g></g></g><g clip-path="url(#162)"></g><g clip-path="url(#163)"></g><g clip-path="url(#164)"></g><g clip-path="url(#165)"></g><g clip-path="url(#166)"></g><g clip-path="url(#167)"></g><g clip-path="url(#168)"></g><g clip-path="url(#169)"></g><g clip-path="url(#170)"></g><g clip-path="url(#171)"></g><g clip-path="url(#172)"></g><g clip-path="url(#173)"></g><g clip-path="url(#174)"></g><g clip-path="url(#175)"></g><g clip-path="url(#176)"></g><g clip-path="url(#177)"></g><g clip-path="url(#178)"></g><g clip-path="url(#179)"></g><g clip-path="url(#180)"></g><g clip-path="url(#181)"></g><g clip-path="url(#182)"></g><g clip-path="url(#183)"></g><g clip-path="url(#184)"></g><g clip-path="url(#185)"></g><g clip-path="url(#186)"></g><g clip-path="url(#187)"></g><g clip-path="url(#188)"></g><g clip-path="url(#189)"></g><g clip-path="url(#190)"></g><g clip-path="url(#191)"></g><g clip-path="url(#192)"></g><g clip-path="url(#193)"></g><g clip-path="url(#194)"></g><g clip-path="url(#195)"></g><g clip-path="url(#196)"></g><g clip-path="url(#197)"></g><g clip-path="url(#198)"></g><g clip-path="url(#199)"></g><g clip-path="url(#200)"></g><g clip-path="url(#201)"></g><g clip-path="url(#202)"></g><g clip-path="url(#203)"></g><g clip-path="url(#204)"></g><g clip-path="url(#205)"></g><g clip-path="url(#206)"></g><g clip-path="url(#207)"></g><g clip-path="url(#208)"></g><g clip-path="url(#209)"></g><g clip-path="url(#210)"></g><g clip-path="url(#211)"></g><g clip-path="url(#212)"></g><g clip-path="url(#213)"></g><g clip-path="url(#214)"></g><g clip-path="url(#215)"></g><g clip-path="url(#216)"></g><g clip-path="url(#217)"></g><g clip-path="url(#218)"></g><g clip-path="url(#219)"></g><g clip-path="url(#220)"></g><g clip-path="url(#221)"></g><g clip-path="url(#222)"></g><g clip-path="url(#223)"></g><g clip-path="url(#224)"></g><g clip-path="url(#225)"></g><g clip-path="url(#226)"></g><g clip-path="url(#227)"></g><g clip-path="url(#228)"></g><g clip-path="url(#229)"></g><g clip-path="url(#230)"></g><g clip-path="url(#231)"></g><g clip-path="url(#232)"></g><g clip-path="url(#233)"></g><g clip-path="url(#234)"></g><g clip-path="url(#235)"></g><g clip-path="url(#236)"></g><g clip-path="url(#237)"></g><g clip-path="url(#238)"></g><g clip-path="url(#239)"></g><g clip-path="url(#240)"></g><g clip-path="url(#241)"></g><g clip-path="url(#242)"></g><g clip-path="url(#243)"></g><g clip-path="url(#244)"></g><g clip-path="url(#245)"></g><g clip-path="url(#246)"></g><g clip-path="url(#247)"></g><g clip-path="url(#248)"></g><g clip-path="url(#249)"></g><g clip-path="url(#250)"></g><g clip-path="url(#251)"></g><g clip-path="url(#252)"></g><g clip-path="url(#253)"></g><g clip-path="url(#254)"></g><g clip-path="url(#255)"></g><g clip-path="url(#256)"></g><g clip-path="url(#257)"></g><g clip-path="url(#258)"></g><g clip-path="url(#259)"></g><g clip-path="url(#260)"></g><g clip-path="url(#261)"></g><g clip-path="url(#262)"></g><g clip-path="url(#263)"></g><g clip-path="url(#264)"></g><g clip-path="url(#265)"></g><g clip-path="url(#266)"></g><g clip-path="url(#267)"></g><g clip-path="url(#268)"></g><g clip-path="url(#269)"></g><g clip-path="url(#270)"></g><g clip-path="url(#271)"></g><g clip-path="url(#272)"></g><g clip-path="url(#273)"></g><g clip-path="url(#274)"></g><g clip-path="url(#275)"></g><g clip-path="url(#276)"></g><path id="890" transform="matrix(1 0 0 -1 0 839)" d="M43.1 554.06L547.65 554.06" stroke="#323E4F" stroke-width="1" stroke-dasharray="4,3" fill="none" /><path id="891" transform="matrix(1 0 0 -1 0 839)" d="M51.075 570.71L44.7 570.71L44.7 570.71L44.7 562.21L44.7 562.21L51.075 562.21L51.075 562.21L53.2 566.46z" stroke="none" fill="#323E4F" fill-rule="evenodd" /></g></g></svg>